# xmcd
#
# Track frame offsets:
#	150
#	16363
#	28319
#	47621
#	63558
#	89494
#	106649
#	123604
#	143790
#	160883
#	177441
#	200670
#
# Disc length: 2839 seconds
#
# Revision: 1
# Processed by: cddbd v1.5.2PL0 Copyright (c) Steve Scherf et al.
# Submitted via: audiograbber 1.83.01
#
DISCID=a90b150c
DTITLE=Jace Everett - Red Revelations
DYEAR=2009
DGENRE=Country
TTITLE0=Possession
TTITLE1=Burn For You
TTITLE2=More To Life
TTITLE3=The Good Life
TTITLE4=Damned If I Do
TTITLE5=One Of Them
TTITLE6=Permanent Thing
TTITLE7=Little Black Dress
TTITLE8=Lean Into The Wild
TTITLE9=What It Is?
TTITLE10=Slip Away
TTITLE11=Bad Things
EXTD=
EXTT0=
EXTT1=
EXTT2=
EXTT3=
EXTT4=
EXTT5=
EXTT6=
EXTT7=
EXTT8=
EXTT9=
EXTT10=
EXTT11=
PLAYORDER=
